<svg id="Layer_1" data-name="Layer 1" xmlns="http://www.w3.org/2000/svg" viewBox="0 0 100 100"><title>ZC2017-Icon_org</title><rect x="44.26" y="44.26" width="2.87" height="5.74"/><rect x="52.87" y="44.26" width="2.87" height="5.74"/><rect x="52.87" y="29.9" width="2.87" height="5.74"/><rect x="44.26" y="29.9" width="2.87" height="5.74"/><rect x="44.26" y="52.87" width="2.87" height="5.74"/><rect x="52.87" y="52.87" width="2.87" height="5.74"/><rect x="44.26" y="61.48" width="2.87" height="5.74"/><rect x="52.87" y="61.48" width="2.87" height="5.74"/><path d="M81.58,78.71H70.1V41.39a2.87,2.87,0,0,0-2.87-2.87V24.16a2.87,2.87,0,0,0-2.87-2.87H55.74V17a1.44,1.44,0,0,0-2.87,0v4.31H47.13V17a1.44,1.44,0,0,0-2.87,0v4.31H35.65a2.87,2.87,0,0,0-2.87,2.87V38.52a2.87,2.87,0,0,0-2.87,2.87V78.71H18.42a2.87,2.87,0,0,0-2.87,2.87v2.87h68.9V81.58A2.87,2.87,0,0,0,81.58,78.71ZM38.52,27h23V38.52h-23ZM52.87,78.71H47.13V73h5.74Zm11.48,0H55.74V70.1H44.26v8.61H35.65V41.39H64.35Z"/></svg>