<svg id="Layer_1" data-name="Layer 1" xmlns="http://www.w3.org/2000/svg" viewBox="0 0 100 100"><title>ZC2017-Icon_search</title><path d="M83.61,71.43,64.68,52.5A25.91,25.91,0,1,0,52.5,64.68L71.43,83.61a2.87,2.87,0,0,0,4.06,0l8.12-8.12A2.87,2.87,0,0,0,83.61,71.43ZM41.39,61.48a20.1,20.1,0,1,1,20.1-20.1A20.09,20.09,0,0,1,41.39,61.48Zm16.11.08a25.73,25.73,0,0,0,4.06-4.06l9.87,9.87-4.06,4.06Zm16,16L69.4,73.46l4.06-4.06,4.06,4.06Z"/><path d="M41.39,24.16A17.22,17.22,0,1,0,58.61,41.39,17.23,17.23,0,0,0,41.39,24.16Zm0,31.58A14.35,14.35,0,1,1,55.74,41.39,14.35,14.35,0,0,1,41.39,55.74Z"/></svg>