<svg id="Layer_1" data-name="Layer 1" xmlns="http://www.w3.org/2000/svg" viewBox="0 0 100 100"><title>ZC2017-Icon_ticket</title><path d="M78.35,15.55H21.65a3.23,3.23,0,0,0-3.23,3.23V81.22a3.23,3.23,0,0,0,3.23,3.23h56.7a3.23,3.23,0,0,0,3.23-3.23V18.78A3.23,3.23,0,0,0,78.35,15.55ZM75.84,78.71H24.16V21.29H75.84Z"/><rect x="32.78" y="38.52" width="34.45" height="2.87"/><rect x="32.78" y="32.78" width="34.45" height="2.87"/><rect x="32.78" y="44.26" width="34.45" height="2.87"/><rect x="32.78" y="50" width="34.45" height="2.87"/><rect x="32.78" y="55.74" width="34.45" height="2.87"/><rect x="32.78" y="61.48" width="34.45" height="2.87"/><rect x="32.78" y="67.22" width="34.45" height="2.87"/></svg>