<svg id="Layer_1" data-name="Layer 1" xmlns="http://www.w3.org/2000/svg" viewBox="0 0 100 100"><title>ZC2017-Icon_user</title><path d="M40.48,52.87a17.21,17.21,0,0,1-7.71-14.35,31.43,31.43,0,0,0,21.6-8.58,31.41,31.41,0,0,0,12.81,9.22,17.21,17.21,0,0,1-7.67,13.72h8.4a23,23,0,1,0-35.83,0ZM50,21.29A17.21,17.21,0,0,1,67,35.92a28.65,28.65,0,0,1-10.61-8.06,18.49,18.49,0,0,1-1.72-2.37,15,15,0,0,1-2,2.15,28.6,28.6,0,0,1-19.61,8A17.21,17.21,0,0,1,50,21.29Z"/><path d="M67.22,55.74H32.78A17.23,17.23,0,0,0,15.55,73v8.61a2.87,2.87,0,0,0,2.87,2.87H81.58a2.87,2.87,0,0,0,2.87-2.87V73A17.23,17.23,0,0,0,67.22,55.74Zm11.48,23H21.29V73A11.48,11.48,0,0,1,32.78,61.48H67.22A11.48,11.48,0,0,1,78.71,73Z"/></svg>